<svg width="16" height="16" viewBox="0 0 16 16" fill="none" xmlns="http://www.w3.org/2000/svg">
<path d="M15.4883 7.04234L12.3172 9.80984L13.2671 13.9302C13.3174 14.1456 13.303 14.371 13.2259 14.5783C13.1487 14.7856 13.0122 14.9655 12.8333 15.0956C12.6544 15.2257 12.4412 15.3002 12.2202 15.3098C11.9992 15.3193 11.7803 15.2635 11.5909 15.1494L7.99719 12.9697L4.41125 15.1494C4.22181 15.2635 4.00291 15.3193 3.78193 15.3098C3.56095 15.3002 3.3477 15.2257 3.16882 15.0956C2.98995 14.9655 2.8534 14.7856 2.77624 14.5783C2.69908 14.371 2.68473 14.1456 2.735 13.9302L3.68351 9.81406L0.511718 7.04234C0.343958 6.89765 0.22265 6.70666 0.163007 6.4933C0.103363 6.27995 0.108039 6.05373 0.176448 5.84303C0.244857 5.63232 0.373953 5.4465 0.547548 5.30887C0.721142 5.17124 0.931508 5.08792 1.15226 5.06937L5.33305 4.70726L6.965 0.814763C7.05022 0.610516 7.19397 0.436051 7.37815 0.313334C7.56232 0.190618 7.77869 0.125137 8 0.125137C8.22131 0.125137 8.43768 0.190618 8.62185 0.313334C8.80603 0.436051 8.94978 0.610516 9.035 0.814763L10.6719 4.70726L14.8512 5.06937C15.072 5.08792 15.2824 5.17124 15.456 5.30887C15.6296 5.4465 15.7587 5.63232 15.8271 5.84303C15.8955 6.05373 15.9001 6.27995 15.8405 6.4933C15.7809 6.70666 15.6596 6.89765 15.4918 7.04234H15.4883Z" fill="#F79009"/>
</svg>
